<svg xmlns="http://www.w3.org/2000/svg" viewBox="0 0 109.888 21">
  <path d="M28.955 19.934a6.625 6.625 0 01-2.313-1.6 7.312 7.312 0 01-1.5-2.49 9.177 9.177 0 01-.539-3.21 8.864 8.864 0 01.553-3.2 7.254 7.254 0 011.533-2.461 6.885 6.885 0 012.327-1.583 7.5 7.5 0 012.937-.566 7.579 7.579 0 012.966.566 6.744 6.744 0 012.313 1.583 7.207 7.207 0 011.5 2.461 9.084 9.084 0 01.539 3.2 9.64 9.64 0 01-.51 3.21 6.981 6.981 0 01-1.476 2.49 6.628 6.628 0 01-2.313 1.6 7.75 7.75 0 01-3.024.566 7.667 7.667 0 01-2.993-.566zm.752-10.367a5.217 5.217 0 00-.794 3.069 5.351 5.351 0 00.794 3.1 2.569 2.569 0 002.241 1.146 2.538 2.538 0 002.228-1.146 5.426 5.426 0 00.78-3.1 5.289 5.289 0 00-.78-3.069 2.555 2.555 0 00-2.228-1.118 2.588 2.588 0 00-2.242 1.118zm29.641 10.41a4.484 4.484 0 01-1.816-1.3 4.836 4.836 0 01-.951-2.022 11.9 11.9 0 01-.269-2.631V1.518l4.227-.679v4.385h5.079v3.508h-5.079v5.233a4.161 4.161 0 00.467 2.122 2.011 2.011 0 001.888.792 8.069 8.069 0 001.4-.127 7.288 7.288 0 001.32-.353l.6 3.281a11.925 11.925 0 01-1.7.538 9.954 9.954 0 01-2.3.227 7.591 7.591 0 01-2.867-.469zm-44.835.123V6.016a25.692 25.692 0 012.682-.75 15.507 15.507 0 013.447-.354c.227 0 .5.015.823.043s.643.067.965.113.643.1.965.17a4.608 4.608 0 01.822.24l-.709 3.48q-.567-.141-1.334-.3a8.3 8.3 0 00-1.646-.155 7.5 7.5 0 00-.951.071 5.476 5.476 0 00-.837.155V20.1zm85.36 0V4.263h-5.65V.5h15.165v3.763h-5.649V20.1zm-11.121 0V.5h3.865v19.6zM.5 20.1V.5h12.886v3.426H4.645v4.381h7.776v3.426H4.645V20.1zm49.386 0v-7.888a5.672 5.672 0 00-.539-2.886 2.2 2.2 0 00-2.014-.849c-.3 0-.624.014-.965.043s-.643.061-.908.1V20.1h-4.229V5.734a23.8 23.8 0 012.781-.581 23.015 23.015 0 013.576-.268 8.753 8.753 0 013.164.494 4.759 4.759 0 012 1.4A5.467 5.467 0 0153.8 8.93a11.438 11.438 0 01.311 2.773v8.4zm22.105-4.26a2.39 2.39 0 112.39 2.383 2.387 2.387 0 01-2.39-2.383zm5.068-5.071a2.39 2.39 0 112.391 2.383 2.387 2.387 0 01-2.391-2.383zM71.991 5.7a2.39 2.39 0 112.39 2.383 2.387 2.387 0 01-2.39-2.383z"></path>
</svg>
